<svg id="レイヤー_1" data-name="レイヤー 1" xmlns="http://www.w3.org/2000/svg" viewBox="0 0 680.11 145.5"><defs><style>.cls-1{fill:#c00;}.cls-2{fill:#221714;}</style></defs><title>ico_honda_wpc</title><path class="cls-1" d="M834.81,519.27V508.94l10.42-1.19c3.62-.43,5.17-3.73,5.59-4.5l26-42.35c2.12-3.32.06-6.27-2.68-6.58l-13.71-1.58V442.26h59.31c3.3,0,5.42,2.3,6.81,4.27l34.63,52.93c2.73,4.26,4.82,7.57,8.29,8l10.91,1.21v10.58H913.77V508.84l8.47-1c4.06-.46,7.38-2.31,4.06-7.25l-3.21-4.85H875.8l-3.63,5.89c-2.26,3.6,0,5.75,3.47,6.21l8.47,1v10.43h-49.3m49.46-37.18h29.92l-15.1-23.75-14.82,23.75" transform="translate(-300.32 -439.26)"/><path class="cls-1" d="M790.63,442.26H714.37v10.48l9.59,1c3.54.53,5,3.11,5,6.6v41.46c0,2.86-1.21,5.58-4.36,6l-10.25,1.32v10.11l76.29,0c35.12,0,50.21-17.06,50.21-39.61,0-20.26-15.09-37.4-50.21-37.4m-11.77,62.23H759.21V457h19.65c18.74,0,26.64,4.36,26.64,23.71,0,19.51-7.9,23.79-26.64,23.79" transform="translate(-300.32 -439.26)"/><path class="cls-1" d="M300.32,519.27H362V509l-10.57-1.2c-2.41-.32-4.83-1.83-4.83-7v-12.4H394.1v11.78c0,3.51-.58,6.82-4.7,7.27l-10.74,1.21v10.58h61.7V508.69l-10.88-1.21c-2.11-.3-4.54-2-4.54-6.34V461.07c0-4.08,1.49-6.84,4.68-7.12l10.74-1.21V442.26h-61.7V452.6L389.4,454c3.63.46,4.7,3.33,4.7,7.12V473H346.62V460.9c0-4.54,1.81-6.67,5-6.95L362,452.74V442.26H300.45v10.48L310.76,454c4.09.46,5.14,3.48,5,7.4v39c0,4.35-1.2,6.95-5.14,7.41L300.32,509v10.27" transform="translate(-300.32 -439.26)"/><path class="cls-1" d="M443.4,480.39c0-24.17,19.51-41.13,63.05-41.13,43.27,0,62.8,17,62.8,41.13,0,24.8-19.53,41.59-62.8,41.59-43.54,0-63.05-16.79-63.05-41.59m62.9-26.29c-17.53,0-27.5,6.52-27.5,26.46,0,20.27,10,26.78,27.5,26.78s27.53-6.51,27.53-26.78c0-19.94-10-26.46-27.53-26.46" transform="translate(-300.32 -439.26)"/><path class="cls-1" d="M572.66,519.27H622V509l-10.59-1.2c-3-.32-4.85-2.86-4.85-6.36V462.26l41,54a8.35,8.35,0,0,0,6.36,3h38.69V460.9c0-2.75.71-6.48,4.68-6.95L708,452.74V442.26H658.7V452.6L669.46,454c3.78.46,4.68,3.63,4.68,7.24v38.13l-40.7-53.68a7.64,7.64,0,0,0-6.33-3.38H572.66v10.48L582.94,454c3.62.54,5,2.38,5,7.4v39c0,4.61-1.26,6.82-5.15,7.41L572.66,509v10.27" transform="translate(-300.32 -439.26)"/><polygon class="cls-2" points="24.97 112.84 40.6 112.84 40.6 144.87 46.26 144.87 46.26 112.84 61.7 112.84 61.7 108.58 24.97 108.58 24.97 112.84"/><path class="cls-2" d="M384.77,555.72c-5,0-9,2-11.51,5.59V547.84h-5.47v36.31h5.47V571.23c0-8.66,5.53-11.75,10.71-11.75,5.47,0,8.36,3.18,8.36,9.19v15.48h5.46V568.42C397.79,560.23,393.16,555.72,384.77,555.72Z" transform="translate(-300.32 -439.26)"/><path class="cls-2" d="M518,558.56c-2.91-2.62-7.2-3.95-12.75-3.95-5.29,0-9.65,1.43-12.59,4.15s-4.36,6.39-4.36,10.91c0,4.8,1.47,8.55,4.36,11.14s7.15,3.94,12.59,3.94c11,0,17-5.35,17-15.08C522.29,564.88,520.85,561.14,518,558.56Zm-1.47,11.11a10.47,10.47,0,0,1-11.28,11.14,11.13,11.13,0,0,1-8.34-3.2,11.32,11.32,0,0,1-2.83-7.94c0-7,4.17-11.13,11.17-11.13C512.43,558.54,516.54,562.6,516.54,569.67Z" transform="translate(-300.32 -439.26)"/><path class="cls-2" d="M680.67,558.56c-2.9-2.62-7.19-3.95-12.75-3.95-5.29,0-9.66,1.43-12.62,4.15a14.27,14.27,0,0,0-4.4,10.91c0,9.73,6,15.08,17,15.08,5.46,0,9.71-1.32,12.64-3.94s4.38-6.34,4.38-11.14S683.51,561.14,680.67,558.56Zm-21.12,3.08a11.28,11.28,0,0,1,8.37-3.1c7.19,0,11.32,4.06,11.32,11.13a10.56,10.56,0,0,1-11.32,11.14c-6.84,0-11.27-4.37-11.27-11.14A11.21,11.21,0,0,1,659.55,561.64Z" transform="translate(-300.32 -439.26)"/><path class="cls-2" d="M790.76,555c-5.47.43-8.38,3.88-10.22,7.24v-7h-4.9v28.95h5.55V568.93a9.32,9.32,0,0,1,3.16-6.81,10.81,10.81,0,0,1,7.4-2.6l2.69,0V555h-.07A33.36,33.36,0,0,0,790.76,555Z" transform="translate(-300.32 -439.26)"/><path class="cls-2" d="M469.32,547.81l-16.51.05v36.28h5.64V570.19h11.63c4.9,0,8.7-1.1,11.29-3.26A10.51,10.51,0,0,0,485,558.6a9.48,9.48,0,0,0-2.63-7C479.82,549.09,475.43,547.81,469.32,547.81ZM479,558.65c0,5.13-2.9,7.42-9.39,7.42H458.45V552h10.76C475.88,552,479,554.08,479,558.65Z" transform="translate(-300.32 -439.26)"/><path class="cls-2" d="M762.74,552.55c-3.53-3.14-9-4.72-16.18-4.72H730.38v36.35h16.4c6.7,0,12-1.6,15.59-4.7s5.49-7.68,5.49-13.5S766.14,555.55,762.74,552.55ZM736.11,552h9.14c6.58,0,10.85,1.15,13.41,3.55C761,557.71,762,561,762,566c0,9.43-5.2,14-15.89,14h-10Z" transform="translate(-300.32 -439.26)"/><path class="cls-2" d="M862.76,578V566c0-3-.09-5.49-3-8-2.51-2.15-6.76-3.35-11-3.35s-11.86,1.26-13.27,7.25h6c.88-1.93,3.65-3.37,7.29-3.37,5.17,0,8.73,2.29,8.73,6.73v1h-4.62c-5.06,0-12.7.2-16.37,3.95a7.36,7.36,0,0,0-2.07,5.34c0,5.41,4.65,9.21,11.57,9.21,5.41,0,8.73-.91,11.69-4.87a42.4,42.4,0,0,0,.28,4.3h5.25A57,57,0,0,1,862.76,578Zm-5.33-6.71c0,6.38-3.31,9.6-10.12,9.6-4.63,0-7.17-2-7.17-5.37a4,4,0,0,1,1.18-2.95c2.23-2.27,7.1-2.52,10.73-2.52h5.38Z" transform="translate(-300.32 -439.26)"/><path class="cls-2" d="M906.3,554.66c-6,0-9.07,3.82-10.53,7a10.44,10.44,0,0,0-9.73-7,10.92,10.92,0,0,0-10.1,6.06s0-2.67-.24-5.52h-5.15c.17,2.16.19,4.8.19,7.07v21.9h5.44V570.24c0-7.93,4.37-11.54,8.68-11.54,4.51,0,6.61,3.41,6.61,10.73v14.74h5.44V570.24c0-4.22,1.11-7.36,3.3-9.38a8,8,0,0,1,5.22-2.16c2.62,0,4.34.88,5.41,2.74s1.44,4.32,1.44,8.25v14.48h5.45V567.55c0-4.34-1.1-7.66-3.26-9.82A11.21,11.21,0,0,0,906.3,554.66Z" transform="translate(-300.32 -439.26)"/><path class="cls-2" d="M945.92,568.4l-9.08-1.87c-4.3-.86-6.2-2-6.2-4,0-2.64,3.4-4,8.35-4,4.07,0,7,1.09,7.91,3.35h5.93a7.32,7.32,0,0,0-4.33-5.59c-2.84-1.39-6.85-1.69-9.35-1.69a19.2,19.2,0,0,0-9.44,2.06c-2.71,1.54-4.52,3.82-4.52,6.75,0,3.83,2.82,6.13,7.91,7.24l8.59,1.83c3,.63,6,1.47,6,4,0,3-3.15,4.47-8.86,4.47-4.73,0-7.59-1.36-8.54-4.19h-6c1.14,6.61,8.06,8,13.85,8,10.3,0,15.31-3,15.31-9C953.49,571.64,951.29,569.52,945.92,568.4Z" transform="translate(-300.32 -439.26)"/><path class="cls-2" d="M704.51,547.28c-3,0-5.56.31-7.73,2.1a7.68,7.68,0,0,0-2.39,3.63,19.38,19.38,0,0,0-.7,5.9h-5.93v3.93h5.93v21.32h5.56V562.84h10v-3.93h-10c0-4,.18-5.33,1.37-6.46.79-.75,2-1.27,4.62-1.27a16.58,16.58,0,0,1,4.34.49v-4A30.17,30.17,0,0,0,704.51,547.28Z" transform="translate(-300.32 -439.26)"/><path class="cls-2" d="M566.2,568.05c-1.08,3.49-2.26,7.4-3.69,12.3h0c-1.17-3.91-2.41-8-3.68-12L555,556.56l0,0h-8.42l-3.85,11.79c-1.3,3.94-2.54,8-3.69,12h0c-1.43-4.91-2.6-8.82-3.68-12.3l-3.57-11.48,0-.05h-6l9,27.59v0h8.43l4-12c.31-1,.63-2,1-3.05.91-2.87,1.85-5.84,2.73-8.81h0c.92,3.1,1.9,6.2,2.85,9.21l.84,2.65,4,11.91v0h8.43l8.94-27.55,0-.09h-6Z" transform="translate(-300.32 -439.26)"/><path class="cls-2" d="M632.07,555c-5.47.43-8.38,3.88-10.22,7.24v-7H617v28.95h5.55V568.93a9.28,9.28,0,0,1,3.16-6.81,10.79,10.79,0,0,1,7.4-2.6l2.69,0V555h-.07A33.36,33.36,0,0,0,632.07,555Z" transform="translate(-300.32 -439.26)"/><path class="cls-2" d="M605.74,558.62c-2.55-2.54-6.26-4-11-4-9.94,0-15.64,5.8-15.64,15.61,0,4.34,1.4,8,4.06,10.46s6.76,4.07,11.54,4.07a19,19,0,0,0,9.35-2.31,10.24,10.24,0,0,0,5-5.7H603c-1.47,2.69-4.71,4.14-8.65,4.14a9.1,9.1,0,0,1-8.66-5.08,12.72,12.72,0,0,1-1.26-4.6h25.12v-1.67C609.57,564.82,608.28,561.15,605.74,558.62Zm-21.17,8.71a9.14,9.14,0,0,1,.31-1.61c1.19-4.65,4.57-7.23,9.73-7.23,6.64,0,9.13,4.64,9.24,8.84Z" transform="translate(-300.32 -439.26)"/><path class="cls-2" d="M823.94,558.62c-2.55-2.54-6.26-4-11-4-9.94,0-15.64,5.8-15.64,15.61,0,4.34,1.4,8,4.06,10.46s6.76,4.07,11.54,4.07a19,19,0,0,0,9.35-2.31,10.24,10.24,0,0,0,5-5.7h-6c-1.47,2.69-4.7,4.14-8.64,4.14a9.12,9.12,0,0,1-8.67-5.08,12.72,12.72,0,0,1-1.26-4.6h25.12a23.78,23.78,0,0,0-.11-3.62A14.09,14.09,0,0,0,823.94,558.62Zm-21.16,8.71a9.14,9.14,0,0,1,.31-1.61c1.18-4.65,4.57-7.23,9.72-7.23,6.64,0,9.13,4.64,9.24,8.84Z" transform="translate(-300.32 -439.26)"/><path class="cls-2" d="M431,558.62c-2.55-2.54-6.26-4-11-4-10,0-15.65,5.8-15.65,15.61,0,4.34,1.4,8,4.07,10.46s6.75,4.07,11.54,4.07a19,19,0,0,0,9.34-2.31,10.24,10.24,0,0,0,5-5.7h-6c-1.48,2.69-4.71,4.14-8.65,4.14A9.12,9.12,0,0,1,411,575.8a12.92,12.92,0,0,1-1.26-4.6h25.13v-1.67C434.88,564.82,433.59,561.15,431,558.62Zm-21.16,8.71a9.14,9.14,0,0,1,.31-1.61c1.18-4.65,4.57-7.23,9.72-7.23,6.64,0,9.14,4.64,9.25,8.84Z" transform="translate(-300.32 -439.26)"/></svg>